<?xml version="1.0" encoding="UTF-8"?>
<svg xmlns="http://www.w3.org/2000/svg" xmlns:xlink="http://www.w3.org/1999/xlink" width="150px" height="150px" viewBox="0 0 150 150" version="1.1">
<defs>
<linearGradient id="linear0" gradientUnits="userSpaceOnUse" x1="360.8791" y1="351.4553" x2="141.213" y2="-69.2936" gradientTransform="matrix(0.377169,0,0,-0.481132,0,151.091009)">
<stop offset="0" style="stop-color:rgb(0%,100%,63.921569%);stop-opacity:1;"/>
<stop offset="1" style="stop-color:rgb(86.27451%,12.156863%,100%);stop-opacity:1;"/>
</linearGradient>
<linearGradient id="linear1" gradientUnits="userSpaceOnUse" x1="264.8291" y1="401.6014" x2="45.163" y2="-19.1475" gradientTransform="matrix(0.377169,0,0,-0.481132,0,151.091009)">
<stop offset="0" style="stop-color:rgb(0%,100%,63.921569%);stop-opacity:1;"/>
<stop offset="1" style="stop-color:rgb(86.27451%,12.156863%,100%);stop-opacity:1;"/>
</linearGradient>
<linearGradient id="linear2" gradientUnits="userSpaceOnUse" x1="312.5484" y1="376.688" x2="92.8822" y2="-44.061" gradientTransform="matrix(0.377169,0,0,-0.481132,0,151.091009)">
<stop offset="0" style="stop-color:rgb(0%,100%,63.921569%);stop-opacity:1;"/>
<stop offset="1" style="stop-color:rgb(86.27451%,12.156863%,100%);stop-opacity:1;"/>
</linearGradient>
</defs>
<g id="surface1">
<path style=" stroke:none;fill-rule:nonzero;fill:url(#linear0);" d="M 24.363281 114.476562 C 25.269531 113.320312 26.515625 112.648438 27.835938 112.648438 L 147.546875 112.648438 C 149.734375 112.648438 150.828125 116.015625 149.285156 117.988281 L 125.636719 148.15625 C 124.730469 149.3125 123.484375 149.984375 122.164062 149.984375 L 2.453125 149.984375 C 0.265625 149.984375 -0.828125 146.617188 0.714844 144.644531 Z M 24.363281 114.476562 "/>
<path style=" stroke:none;fill-rule:nonzero;fill:url(#linear1);" d="M 24.363281 1.84375 C 25.308594 0.6875 26.550781 0.015625 27.835938 0.015625 L 147.546875 0.015625 C 149.734375 0.015625 150.828125 3.382812 149.285156 5.355469 L 125.636719 35.523438 C 124.730469 36.679688 123.484375 37.351562 122.164062 37.351562 L 2.453125 37.351562 C 0.265625 37.351562 -0.828125 33.984375 0.714844 32.011719 Z M 24.363281 1.84375 "/>
<path style=" stroke:none;fill-rule:nonzero;fill:url(#linear2);" d="M 125.636719 57.800781 C 124.730469 56.644531 123.484375 55.972656 122.164062 55.972656 L 2.453125 55.972656 C 0.265625 55.972656 -0.828125 59.339844 0.714844 61.3125 L 24.363281 91.480469 C 25.269531 92.632812 26.515625 93.308594 27.835938 93.308594 L 147.546875 93.308594 C 149.734375 93.308594 150.828125 89.9375 149.285156 87.964844 Z M 125.636719 57.800781 "/>
</g>
</svg>
