<svg id="图层_1" data-name="图层 1" xmlns="http://www.w3.org/2000/svg" viewBox="0 0 512 512"><defs><style>.cls-1{fill:#df5b23;}</style></defs><path class="cls-1" d="M139.35,258.58l103.22,98.28a6.22,6.22,0,0,1,1.93,4.5v142a2.67,2.67,0,0,1-4.37,2.05L15.1,318.12a6.21,6.21,0,0,1-2.24-4.78V199a6.21,6.21,0,0,1,2.24-4.78l225-187.58a2.67,2.67,0,0,1,4.37,2.05V150.94a6.27,6.27,0,0,1-1.95,4.53L139.36,252.78A4,4,0,0,0,139.35,258.58Z"/><path class="cls-1" d="M499.14,199V313.34a6.21,6.21,0,0,1-2.24,4.78l-225,187.26a2.67,2.67,0,0,1-4.37-2.05v-142a6.19,6.19,0,0,1,1.92-4.49L372,258.57a4,4,0,0,0,0-5.78L269.44,155.46A6.19,6.19,0,0,1,267.5,151V8.67a2.67,2.67,0,0,1,4.37-2l225,187.58A6.21,6.21,0,0,1,499.14,199Z"/></svg>