<?xml version="1.0" encoding="utf-8"?>
<!-- Generator: Adobe Illustrator 26.4.1, SVG Export Plug-In . SVG Version: 6.00 Build 0)  -->
<svg version="1.1" id="图层_1" xmlns="http://www.w3.org/2000/svg" xmlns:xlink="http://www.w3.org/1999/xlink" x="0px" y="0px"
	 viewBox="0 0 510 150" style="enable-background:new 0 0 510 150;" xml:space="preserve">
<style type="text/css">
	.st0{fill:#CBFF00;}
</style>
<g>
	<g>
		<path class="st0" d="M43.7,114.3H23.8V6.2h19.9v68.2l29.4-37.3h22.7L70.2,69.3l25.7,45H73.1L57.4,86.2l-13.7,18.2V114.3z"/>
		<path class="st0" d="M132,95.4c0.8,0.2,1.5,0.4,2.3,0.5s1.5,0.1,2.3,0.1c1.9,0,3.8-0.3,5.6-0.8s3.5-1.3,5-2.3s3-2.2,4.2-3.6
			s2.2-3,3-4.7l14.4,14.5c-1.8,2.6-3.9,4.9-6.3,7s-5,3.8-7.7,5.3c-2.8,1.4-5.7,2.5-8.7,3.3c-3.1,0.8-6.2,1.1-9.4,1.1
			c-5.4,0-10.6-1-15.3-3s-9-4.8-12.6-8.4s-6.4-7.9-8.5-12.9S97.1,81,97.1,75c0-6.1,1-11.7,3.1-16.8c2.1-5.1,4.9-9.4,8.5-12.9
			s7.8-6.3,12.6-8.3c4.8-2,9.9-3,15.3-3c3.2,0,6.4,0.4,9.5,1.2c3.1,0.8,6,1.9,8.8,3.3c2.8,1.5,5.4,3.2,7.8,5.3
			c2.4,2.1,4.5,4.4,6.4,7L132,95.4z M142.1,54.7c-0.9-0.3-1.8-0.5-2.7-0.7c-0.9-0.1-1.8-0.1-2.8-0.1c-2.7,0-5.2,0.5-7.6,1.5
			c-2.4,1-4.5,2.4-6.2,4.2c-1.8,1.8-3.1,4-4.2,6.6c-1,2.6-1.5,5.5-1.5,8.7c0,0.7,0,1.5,0.1,2.5s0.2,1.8,0.4,2.8s0.4,1.8,0.6,2.7
			s0.6,1.6,0.9,2.3L142.1,54.7z"/>
		<path class="st0" d="M209.1,95.4c0.8,0.2,1.5,0.4,2.3,0.5s1.5,0.1,2.3,0.1c1.9,0,3.8-0.3,5.6-0.8s3.5-1.3,5-2.3s3-2.2,4.2-3.6
			s2.2-3,3-4.7l14.4,14.5c-1.8,2.6-3.9,4.9-6.3,7s-5,3.8-7.7,5.3c-2.8,1.4-5.7,2.5-8.7,3.3c-3.1,0.8-6.2,1.1-9.4,1.1
			c-5.4,0-10.6-1-15.4-3c-4.8-2-9-4.8-12.6-8.4c-3.6-3.6-6.4-7.9-8.5-12.9S174.2,81,174.2,75c0-6.1,1-11.7,3.1-16.8
			c2.1-5.1,4.9-9.4,8.5-12.9c3.6-3.6,7.8-6.3,12.6-8.3c4.8-2,9.9-3,15.4-3c3.2,0,6.4,0.4,9.5,1.2c3.1,0.8,6,1.9,8.8,3.3
			c2.8,1.5,5.4,3.2,7.8,5.3c2.4,2.1,4.5,4.4,6.4,7L209.1,95.4z M219.2,54.7c-0.9-0.3-1.8-0.5-2.7-0.7c-0.9-0.1-1.8-0.1-2.8-0.1
			c-2.7,0-5.2,0.5-7.6,1.5c-2.4,1-4.5,2.4-6.2,4.2c-1.8,1.8-3.1,4-4.1,6.6c-1,2.6-1.5,5.5-1.5,8.7c0,0.7,0,1.5,0.1,2.5
			s0.2,1.8,0.4,2.8s0.4,1.8,0.6,2.7s0.6,1.6,0.9,2.3L219.2,54.7z"/>
		<path class="st0" d="M275.9,143.8H256V37h4.8l7.9,9.3c1.8-1.7,3.7-3.3,5.9-4.8s4.3-2.8,6.6-3.9c2.3-1.1,4.7-1.9,7.1-2.6
			s4.9-0.9,7.4-0.9c5.4,0,10.6,1,15.4,2.9s9,4.7,12.6,8.3c3.6,3.6,6.4,7.9,8.5,12.9c2.1,5,3.1,10.6,3.1,16.7c0,6.4-1,12.1-3.1,17.2
			c-2.1,5.1-4.9,9.4-8.5,12.9s-7.8,6.2-12.6,8.1s-9.9,2.8-15.4,2.8c-1.7,0-3.5-0.2-5.2-0.6c-1.7-0.4-3.4-0.9-5.1-1.6
			s-3.3-1.4-4.9-2.2c-1.6-0.8-3.2-1.7-4.7-2.5L275.9,143.8L275.9,143.8z M315.4,75c0-3.3-0.5-6.2-1.5-8.8c-1-2.6-2.5-4.8-4.2-6.6
			c-1.8-1.8-3.9-3.2-6.3-4.2c-2.4-1-5-1.5-7.7-1.5s-5.2,0.5-7.6,1.5c-2.4,1-4.5,2.3-6.2,4.2c-1.8,1.8-3.2,4-4.2,6.6S276,71.7,276,75
			c0,3.1,0.5,6,1.5,8.6c1,2.6,2.4,4.8,4.2,6.7c1.8,1.8,3.9,3.2,6.2,4.3s4.9,1.5,7.6,1.5c2.7,0,5.2-0.5,7.7-1.5
			c2.4-1,4.5-2.4,6.3-4.3c1.8-1.8,3.2-4.1,4.2-6.7C314.9,81,315.4,78.1,315.4,75z"/>
	</g>
	<path class="st0" d="M423,11.8c-34.9,0-63.2,28.3-63.2,63.2s28.3,63.2,63.2,63.2s63.2-28.3,63.2-63.2S457.9,11.8,423,11.8z
		 M454.4,59.6h-9.9v47h-16.2v-47h-10.7v47h-16.2v-47h-9.8V43.4h62.8L454.4,59.6L454.4,59.6z"/>
</g>
</svg>
